<svg width="32" height="32" viewBox="0 0 32 32" fill="none" xmlns="http://www.w3.org/2000/svg">
<g id="view_in_ar_new">
<mask id="mask0_1_16952" style="mask-type:alpha" maskUnits="userSpaceOnUse" x="0" y="0" width="32" height="32">
<rect id="Bounding box" width="32" height="32" fill="#D9D9D9"/>
</mask>
<g mask="url(#mask0_1_16952)">
<path id="view_in_ar_new_2" d="M14.6667 26.0667L8.00004 22.2334C7.57782 21.9889 7.25026 21.6614 7.01737 21.2507C6.7836 20.8392 6.66671 20.3889 6.66671 19.9V12.2667C6.66671 11.7778 6.7836 11.3276 7.01737 10.916C7.25026 10.5054 7.57782 10.1778 8.00004 9.93337L14.6667 6.10004C15.0889 5.8556 15.5334 5.73337 16 5.73337C16.4667 5.73337 16.9112 5.8556 17.3334 6.10004L24 9.93337C24.4223 10.1778 24.7503 10.5054 24.984 10.916C25.2169 11.3276 25.3334 11.7778 25.3334 12.2667V19.9C25.3334 20.3889 25.2169 20.8392 24.984 21.2507C24.7503 21.6614 24.4223 21.9889 24 22.2334L17.3334 26.0667C16.9112 26.3112 16.4667 26.4334 16 26.4334C15.5334 26.4334 15.0889 26.3112 14.6667 26.0667ZM14.6667 23V16.8667L9.33337 13.8V19.9334L14.6667 23ZM17.3334 23L22.6667 19.9334V13.8L17.3334 16.8667V23ZM1.33337 8.00004V5.33337C1.33337 4.22226 1.72226 3.27782 2.50004 2.50004C3.27782 1.72226 4.22226 1.33337 5.33337 1.33337H8.00004V4.00004H5.33337C4.9556 4.00004 4.63915 4.1276 4.38404 4.38271C4.12804 4.63871 4.00004 4.9556 4.00004 5.33337V8.00004H1.33337ZM5.33337 30.6667C4.22226 30.6667 3.27782 30.2778 2.50004 29.5C1.72226 28.7223 1.33337 27.7778 1.33337 26.6667V24H4.00004V26.6667C4.00004 27.0445 4.12804 27.3609 4.38404 27.616C4.63915 27.872 4.9556 28 5.33337 28H8.00004V30.6667H5.33337ZM24 30.6667V28H26.6667C27.0445 28 27.3609 27.872 27.616 27.616C27.872 27.3609 28 27.0445 28 26.6667V24H30.6667V26.6667C30.6667 27.7778 30.2778 28.7223 29.5 29.5C28.7223 30.2778 27.7778 30.6667 26.6667 30.6667H24ZM28 8.00004V5.33337C28 4.9556 27.872 4.63871 27.616 4.38271C27.3609 4.1276 27.0445 4.00004 26.6667 4.00004H24V1.33337H26.6667C27.7778 1.33337 28.7223 1.72226 29.5 2.50004C30.2778 3.27782 30.6667 4.22226 30.6667 5.33337V8.00004H28ZM16 14.5334L21.3334 11.4667L16 8.40004L10.6667 11.4667L16 14.5334Z" fill="black"/>
</g>
</g>
</svg>
