<svg width="32" height="32" viewBox="0 0 32 32" fill="none" xmlns="http://www.w3.org/2000/svg">
<g id="receipt_long">
<mask id="mask0_1_16964" style="mask-type:alpha" maskUnits="userSpaceOnUse" x="0" y="0" width="32" height="32">
<rect id="Bounding box" width="32" height="32" fill="#D9D9D9"/>
</mask>
<g mask="url(#mask0_1_16964)">
<path id="receipt_long_2" d="M8 29.3333C6.88889 29.3333 5.94444 28.9444 5.16667 28.1666C4.38889 27.3888 4 26.4444 4 25.3333V21.3333H8V2.66663L10 4.66663L12 2.66663L14 4.66663L16 2.66663L18 4.66663L20 2.66663L22 4.66663L24 2.66663L26 4.66663L28 2.66663V25.3333C28 26.4444 27.6111 27.3888 26.8333 28.1666C26.0556 28.9444 25.1111 29.3333 24 29.3333H8ZM24 26.6666C24.3778 26.6666 24.6942 26.5386 24.9493 26.2826C25.2053 26.0275 25.3333 25.7111 25.3333 25.3333V6.66663H10.6667V21.3333H22.6667V25.3333C22.6667 25.7111 22.7947 26.0275 23.0507 26.2826C23.3058 26.5386 23.6222 26.6666 24 26.6666ZM12 12V9.33329H20V12H12ZM12 16V13.3333H20V16H12ZM22.6667 12C22.2889 12 21.9724 11.872 21.7173 11.616C21.4613 11.3608 21.3333 11.0444 21.3333 10.6666C21.3333 10.2888 21.4613 9.97196 21.7173 9.71596C21.9724 9.46085 22.2889 9.33329 22.6667 9.33329C23.0444 9.33329 23.3609 9.46085 23.616 9.71596C23.872 9.97196 24 10.2888 24 10.6666C24 11.0444 23.872 11.3608 23.616 11.616C23.3609 11.872 23.0444 12 22.6667 12ZM22.6667 16C22.2889 16 21.9724 15.872 21.7173 15.616C21.4613 15.3608 21.3333 15.0444 21.3333 14.6666C21.3333 14.2888 21.4613 13.972 21.7173 13.716C21.9724 13.4608 22.2889 13.3333 22.6667 13.3333C23.0444 13.3333 23.3609 13.4608 23.616 13.716C23.872 13.972 24 14.2888 24 14.6666C24 15.0444 23.872 15.3608 23.616 15.616C23.3609 15.872 23.0444 16 22.6667 16ZM8 26.6666H20V24H6.66667V25.3333C6.66667 25.7111 6.79422 26.0275 7.04933 26.2826C7.30533 26.5386 7.62222 26.6666 8 26.6666Z" fill="black"/>
</g>
</g>
</svg>
