<svg width="169" height="108" viewBox="0 0 169 108" fill="none" xmlns="http://www.w3.org/2000/svg">
<g id="image" clip-path="url(#clip0_11_228)">
<path id="Vector" d="M99.5781 27.332C99.5231 27.285 99.5341 26.482 99.5531 25.18C99.5721 23.982 99.5961 22.361 99.5781 20.519C99.5301 15.248 99.3331 13.072 98.7791 11.644C98.3771 10.605 97.4241 8.858 96.6631 7.765C95.9011 6.671 94.0221 4.476 92.4861 2.888C90.9481 1.3 89.3531 0 88.937 0C88.523 0 87.703 0.449 87.1151 0.998C86.5281 1.548 85.7101 2.677 85.298 3.507C84.885 4.339 84.5471 5.362 84.5471 5.782C84.5471 6.201 84.2301 7.419 83.8421 8.487C83.4531 9.555 83.1301 11.583 83.1231 12.992C83.1161 14.501 83.3601 15.862 83.7171 16.296C84.1411 16.812 84.1551 16.934 83.7621 16.701C83.6521 16.628 83.5231 16.588 83.3911 16.588C83.2751 16.596 83.2021 16.665 83.2021 16.79C83.2021 17.023 83.4661 17.313 83.7911 17.436C84.1331 17.566 84.3401 18.231 84.2861 19.02C84.2581 19.444 84.312 19.868 84.4441 20.271C84.5371 20.547 84.666 20.771 84.812 20.891C85.1541 21.172 85.3451 21.545 85.2351 21.721C85.1271 21.896 85.7901 23.321 86.7091 24.886C87.6311 26.452 89.0281 28.132 89.8131 28.622C90.6001 29.112 91.34 29.774 91.3501 30.051C91.049 30.359 90.5701 31.056 90.284 31.597C89.998 32.138 89.6411 32.752 89.4921 32.962L89.465 33.003C89.4481 33.029 89.4321 33.057 89.4171 33.085C89.2581 33.378 89.0171 33.976 88.8391 34.536C88.48 35.664 88.4581 36.03 88.4601 41.02C88.4621 45.369 88.5171 46.597 88.7691 47.93C88.854 48.373 89.0441 49.188 89.2851 50.145C89.4421 50.783 89.6251 51.482 89.8101 52.177L89.9571 52.724L90.1021 53.245L90.3191 54.037L90.5751 54.978L90.7501 55.635C90.8941 56.181 91.0051 56.618 91.0681 56.885L91.0921 56.99C91.1151 57.088 91.1251 57.149 91.1251 57.17C91.1211 57.214 91.109 57.256 91.09 57.296L91.0611 57.361L91.0281 57.431C91.0011 57.485 90.9731 57.538 90.9431 57.591C90.8141 57.814 90.6741 58.031 90.5231 58.24C90.1911 58.703 89.9201 59.225 89.9201 59.402C89.9201 59.58 90.0011 59.871 90.0971 60.05C90.2401 60.315 90.1631 60.496 89.6791 61.027C89.3541 61.384 88.9641 61.982 88.8141 62.354C88.7141 62.601 88.5971 62.796 88.4361 62.965L88.3771 63.024L88.3131 63.083L88.2511 63.135C88.1071 63.246 87.9521 63.344 87.7891 63.427C87.3771 63.644 86.9521 64.012 86.8451 64.244C86.7391 64.476 86.6521 64.946 86.6521 65.287C86.6521 65.328 86.6551 65.373 86.6581 65.42L77.2541 70.059C77.1861 69.921 77.0961 69.794 76.9891 69.683C76.94 69.628 76.8861 69.578 76.8291 69.532C76.5221 69.286 76.0391 69.093 75.2181 68.884C74.4671 68.693 73.5231 68.379 73.1211 68.185C72.7181 67.992 72.1031 67.522 71.7551 67.14C71.342 66.659 70.9921 66.128 70.7131 65.559C70.4641 64.999 70.2721 64.415 70.1401 63.817C70.049 63.346 69.9601 62.239 69.9411 61.355C69.9101 59.944 69.9701 59.568 70.4411 58.241C70.8801 57 71.1241 56.587 71.8151 55.913C72.3991 55.323 72.9461 54.697 73.4531 54.04C73.7191 53.69 73.9881 53.26 74.1821 52.89C74.2911 52.694 74.3801 52.487 74.4491 52.273C74.5561 51.881 74.6341 51.107 74.6231 50.552C74.6061 50.16 74.5591 49.769 74.4851 49.384C74.4321 49.085 74.3621 48.789 74.2751 48.498C74.0951 47.922 73.8591 46.418 73.7481 45.155C73.6911 44.519 73.6221 43.883 73.5421 43.249C73.479 42.719 73.4001 42.191 73.3031 41.665C73.2291 41.3 73.0761 40.8 72.8991 40.312C72.7561 39.921 72.5961 39.536 72.4451 39.234C72.0121 38.377 71.4381 37.598 70.7481 36.93V26.539L70.7411 25.287C70.7231 22.154 69.9521 19.071 68.4941 16.296L67.7031 15.182C66.4681 13.443 64.8591 12.002 62.9941 10.965L62.1861 10.517C60.8451 9.771 59.1301 9.33 58.3011 10.62C57.4341 11.969 58.9391 15.19 60.3661 18.256C61.0971 19.826 62.6611 23.575 63.0741 26.019C63.3351 27.564 62.9221 29.586 62.5831 31.249C62.3861 32.217 62.2121 33.063 62.2121 33.622C60.3311 33.585 59.2161 33.643 58.4271 33.818C58.3371 33.839 58.2411 33.862 58.1401 33.887L57.2921 30.664L56.5721 27.986C56.2871 26.927 55.7491 25.952 55.0051 25.145L53.7471 23.777L52.3171 22.589C51.5281 21.935 50.6031 21.464 49.6091 21.211L47.2771 20.618C46.7171 20.475 46.1311 20.349 45.5681 20.483C44.8911 20.644 44.9331 21.016 45.0811 21.292C45.2131 21.54 45.4231 21.738 45.6001 21.957C46.3261 22.849 48.3411 25.323 49.2191 26.376C49.7781 27.044 50.3561 28.505 50.9061 29.893C51.166 30.549 51.4181 31.188 51.6611 31.722C52.1391 32.774 52.2201 34.295 52.2871 35.544C52.2991 35.767 52.3101 35.98 52.3231 36.182C52.3401 36.425 52.3571 36.65 52.3831 36.849C52.0291 37.149 51.7021 37.48 51.4061 37.837C51.0131 38.315 50.6821 38.84 50.4191 39.399C50.0851 40.097 49.7051 41.237 49.5741 41.934L48.8691 45.689C48.6691 46.757 48.5561 47.369 48.5151 47.814C48.4821 48.176 48.4961 48.427 48.5511 48.721C48.5841 48.896 48.6321 49.088 48.6931 49.326C48.7871 49.703 48.8511 50.06 48.8821 50.395C48.9131 50.739 48.9121 51.061 48.8751 51.359C48.8471 51.576 48.8381 51.796 48.8471 52.015C48.8651 52.388 48.9471 52.749 49.1091 53.209C49.2951 53.741 49.5651 54.778 49.7091 55.513C49.8621 56.336 49.9831 57.165 50.0711 57.997C50.1281 58.628 50.3601 59.78 50.5871 60.556C50.8141 61.333 51.3941 62.86 51.8731 63.952C52.3541 65.044 52.7491 66.066 52.7491 66.223C52.7491 66.403 52.4121 66.657 51.8441 66.91C51.3471 67.131 50.6131 67.363 50.2131 67.427C49.8501 67.494 49.4981 67.611 49.1681 67.776C49.0421 67.834 48.9241 67.907 48.8151 67.992L48.7431 68.049L48.6981 68.09C48.5791 68.195 48.4691 68.309 48.3681 68.431C48.2491 68.569 48.1451 68.72 48.0591 68.881C47.9471 69.103 47.8491 69.464 47.7961 69.823L41.5601 71.15C41.4351 70.976 41.3051 70.804 41.1711 70.636C41.0771 70.517 40.9791 70.401 40.8771 70.289C40.7261 70.119 40.5861 69.938 40.4591 69.748C40.4121 69.681 40.3661 69.612 40.3221 69.543L40.2421 69.41L40.1861 69.313C40.1151 69.192 40.0541 69.065 40.0041 68.934C39.8771 68.595 39.8541 68.22 39.8471 67.264C39.8451 66.989 39.8501 66.721 39.8601 66.469C39.8851 65.884 39.9441 65.382 40.0291 65.059C40.1371 64.651 40.2251 64.12 40.2251 63.879C40.2251 63.537 40.3351 63.345 40.7351 62.991C40.7921 62.94 40.8501 62.884 40.9081 62.822C41.0031 62.722 41.0961 62.61 41.1801 62.498C41.2991 62.34 41.3971 62.181 41.4491 62.058C41.5631 61.792 41.8061 61.166 41.9901 60.665C42.0881 60.4 42.2271 59.962 42.3711 59.481C42.4961 59.056 42.6251 58.597 42.7291 58.195C42.8561 57.698 42.9911 57.156 43.0971 56.716C43.1731 56.398 43.2341 56.134 43.2651 55.983C43.3031 55.796 43.3611 55.367 43.4211 54.834C43.4811 54.299 43.5341 53.763 43.5811 53.227C43.6801 52.067 43.7441 50.955 43.7211 50.756L43.5901 49.611C43.5531 49.343 43.5031 49.078 43.4391 48.815C43.3451 48.404 43.2351 47.997 43.1091 47.595C42.8961 46.916 42.6191 46.176 42.4931 45.95C42.3691 45.726 42.0251 45.284 41.7301 44.969C41.3771 44.602 41.0041 44.256 40.6101 43.933C40.2911 43.678 39.7491 43.311 39.4081 43.118C39.0681 42.923 38.2971 42.591 37.6961 42.379C37.0441 42.15 35.9961 41.918 35.0901 41.804C34.2581 41.7 33.2501 41.622 32.8531 41.631C32.2161 41.656 31.5791 41.699 30.9451 41.76C30.2951 41.822 29.4641 41.968 29.1001 42.085C28.7391 42.203 28.1741 42.417 27.8491 42.562C27.5231 42.708 26.8601 43.113 26.3721 43.463C26.0971 43.663 25.7521 43.947 25.4371 44.229C25.2221 44.419 25.0151 44.618 24.8171 44.826C24.4471 45.227 23.9121 46.011 23.6271 46.57C23.3431 47.128 22.9941 48.012 22.8541 48.534C22.6671 49.277 22.5081 50.027 22.3781 50.782C22.3091 51.193 22.2431 51.605 22.1801 52.017C22.1531 52.202 22.1341 52.342 22.1291 52.408C22.0881 52.798 22.0451 53.188 21.9991 53.577C21.9221 54.247 21.9581 54.637 22.1751 55.455C22.3271 56.023 22.4501 56.658 22.4501 56.866C22.4501 57.073 22.3531 57.571 22.2361 57.972C22.0481 58.61 22.0401 58.919 22.1751 60.463C22.26 61.432 22.385 62.519 22.4531 62.877L22.5871 63.576L22.7881 64.632C22.9031 65.239 23.1151 66.147 23.2591 66.648C23.4031 67.148 23.7351 68.012 23.9951 68.566L24.1581 68.918C24.2151 69.045 24.2601 69.149 24.2941 69.237C24.3251 69.319 24.3471 69.385 24.3601 69.443C24.4011 69.618 24.3551 69.696 24.2511 69.809C24.1851 69.881 24.0351 69.97 23.8541 70.048C23.7131 70.109 23.5531 70.166 23.4001 70.204C23.0501 70.294 22.5841 70.475 22.3631 70.607C22.1401 70.741 21.8271 71.121 21.6641 71.452C21.4851 71.817 21.4171 72.042 21.4261 72.341C12.8001 76.926 6.43705 84.843 3.82305 94.242L0.457052 106.355C0.348052 106.746 0.429052 107.165 0.675052 107.488C0.920052 107.81 1.30305 108 1.71005 108H167.568C168.295 108 168.83 107.318 168.655 106.613L166.74 98.892C163.92 87.519 156.192 77.98 145.64 72.847C145.619 72.482 145.592 72.213 145.561 72.095C145.46 71.753 145.304 71.432 145.097 71.142C144.927 70.927 144.232 70.459 143.554 70.101C142.84 69.725 142.269 69.317 142.198 69.134C142.156 69.025 142.169 68.795 142.238 68.441C142.303 68.104 142.42 67.655 142.586 67.093C142.865 66.144 143.411 64.177 143.798 62.721C144.186 61.266 144.573 59.803 144.66 59.471C144.745 59.138 144.82 58.15 144.824 57.277C144.828 56.404 144.791 54.294 144.742 52.59C144.716 51.652 144.667 50.714 144.594 49.779C144.525 48.925 144.436 48.164 144.331 47.523C144.228 46.904 144.106 46.288 143.964 45.676C143.846 45.167 143.727 44.715 143.63 44.429C143.563 44.231 143.487 44.037 143.401 43.846L143.328 43.69C143.22 43.457 143.103 43.229 142.978 43.006C142.86 42.793 142.73 42.586 142.589 42.387C142.223 41.885 141.489 41.054 140.958 40.541C140.426 40.028 139.572 39.399 139.061 39.144C138.55 38.89 137.418 38.518 136.544 38.317L136.254 38.254L136.116 38.225C135.591 38.117 135.063 38.026 134.532 37.953C134.344 37.927 134.154 37.906 133.964 37.893C133.683 37.876 133.293 37.872 132.894 37.882C132.517 37.891 132.132 37.909 131.827 37.937C131.198 37.994 130.253 38.113 129.727 38.2C129.203 38.287 128.058 38.674 127.184 39.061C125.795 39.676 125.463 39.899 124.539 40.846C124.336 41.054 124.136 41.267 123.957 41.464C123.628 41.827 123.373 42.132 123.313 42.245C123.22 42.42 122.937 43.204 122.687 43.985C122.435 44.767 122.149 45.88 122.048 46.461C121.935 47.118 121.901 48.172 121.956 49.258C122.017 50.413 122.184 51.511 122.453 52.514C122.675 53.346 123.017 54.707 123.211 55.538C123.265 55.765 123.326 56.015 123.391 56.268C123.562 56.943 123.754 57.648 123.88 58.047C124.053 58.595 124.35 59.258 124.54 59.522C124.729 59.787 125.079 60.267 125.315 60.591C125.681 61.095 125.767 61.405 125.899 62.744C125.983 63.605 126.011 64.887 125.959 65.595C125.881 66.506 125.767 67.414 125.619 68.317C125.41 69.53 125.299 69.832 124.9 70.263C124.766 70.405 124.62 70.536 124.463 70.655C124.403 70.702 124.341 70.747 124.277 70.789C124.178 70.859 124.073 70.919 123.964 70.969C123.926 70.985 123.89 71.002 123.854 71.021C123.779 71.061 123.705 71.104 123.633 71.15L112.321 65.599C112.212 65.266 112.077 64.942 111.917 64.63C111.835 64.466 111.737 64.309 111.627 64.161C111.356 63.82 110.854 62.999 110.51 62.336C110.165 61.673 109.883 60.978 109.883 60.793C109.883 60.607 110.182 60.165 110.549 59.81L111.213 59.167L111.312 57.173C111.373 55.953 111.574 54.519 111.833 53.475C112.082 52.476 112.346 51.481 112.625 50.489C112.862 49.667 113.057 48.296 113.168 46.65C113.263 45.243 113.301 43.669 113.253 43.153C113.168 42.045 113.102 40.935 113.056 39.825C112.977 38.3 112.836 36.779 112.634 35.266C112.438 33.904 112.179 32.813 111.942 32.342C111.741 31.944 111.283 31.317 110.907 30.922C110.957 30.836 111.001 30.746 111.04 30.655C111.255 30.188 111.672 29.287 112.285 28.947C112.535 28.807 112.839 28.618 113.171 28.396C114.176 27.722 115.139 26.989 116.057 26.201C117.19 25.213 118.768 23.259 119.561 21.855C120.625 20.014 121.738 18.202 122.899 16.42C123.942 14.833 125.134 12.671 125.548 11.615C125.963 10.557 126.423 8.548 126.571 7.149C126.772 5.246 126.654 4.248 126.1 3.19C125.494 2.029 125.1 1.78 123.913 1.804C123.118 1.821 121.509 2.37 120.337 3.025C119.166 3.68 116.279 6.093 113.922 8.388C110.296 11.919 109.357 13.141 107.809 16.349C106.802 18.434 105.624 21.161 105.19 22.409C104.755 23.658 104.257 25.517 104.082 26.539L103.696 27.553C102.913 27.406 101.488 27.291 100.527 27.299C100.21 27.303 99.8941 27.314 99.5781 27.332ZM98.7641 42.442C98.5861 42.242 98.1001 41.929 97.6861 41.746C97.536 41.681 97.3811 41.627 97.2231 41.585C97.0051 41.527 96.7831 41.48 96.5601 41.445C96.2491 41.396 95.9351 41.365 95.6211 41.352C95.0721 41.329 94.522 41.342 93.9741 41.391C93.8331 41.403 93.6921 41.423 93.5521 41.45C93.3871 41.484 93.1931 41.544 92.9991 41.617C92.7251 41.715 92.4621 41.842 92.215 41.997C92.1571 42.036 92.1001 42.079 92.0451 42.123C91.7251 42.383 91.4391 42.682 91.1941 43.013C91.0811 43.178 90.9831 43.354 90.9021 43.537L90.8641 43.628L90.8311 43.71C90.8121 43.759 90.7941 43.808 90.7781 43.857L90.7391 43.978C90.7071 44.08 90.6831 44.186 90.6671 44.292C90.6161 44.696 90.6721 45.062 90.8161 45.252C90.9451 45.422 91.3571 45.629 91.7331 45.715C92.1551 45.812 93.0391 45.804 94.0521 45.696C95.2371 45.57 95.9941 45.382 96.8051 45.009C97.0911 44.879 97.3881 44.724 97.6461 44.577C97.9431 44.41 98.187 44.251 98.2961 44.149C98.5021 43.958 98.7641 43.576 98.8781 43.302C99.0591 42.872 99.0421 42.753 98.7631 42.441L98.7641 42.442ZM106.701 41.002C107.901 41.035 108.59 41.136 108.978 41.336C109.283 41.494 109.659 41.863 109.812 42.156C109.965 42.45 110.091 42.949 110.091 43.267C110.091 43.584 109.973 44.022 109.828 44.24C109.684 44.459 109.276 44.774 108.921 44.94C108.483 45.146 107.692 45.272 106.448 45.33C105.028 45.397 104.394 45.351 103.6 45.121C103.26 45.03 102.933 44.895 102.627 44.72C102.341 44.546 102.077 44.337 101.843 44.098C101.599 43.862 101.382 43.6 101.196 43.316L101.148 43.23L101.131 43.198L101.121 43.168L101.114 43.141C101.11 43.129 101.108 43.116 101.107 43.103C101.107 42.957 101.31 42.599 101.558 42.306C101.858 41.975 102.222 41.708 102.627 41.519C102.967 41.378 103.636 41.193 104.113 41.108C104.589 41.024 105.754 40.976 106.701 41.002ZM103.028 54.274C102.872 54.098 102.694 53.943 102.5 53.811C102.159 53.592 101.61 53.371 101.279 53.321C100.949 53.271 100.339 53.338 99.9241 53.468C99.5101 53.599 98.9481 53.919 98.6751 54.178C98.4981 54.355 98.3461 54.555 98.2221 54.772L98.1781 54.848L98.1401 54.923C98.0921 55.016 98.0521 55.113 98.0221 55.213C97.9271 55.585 97.9271 55.976 98.0241 56.348C98.0991 56.6 98.2131 56.837 98.3641 57.052C98.4011 57.104 98.4431 57.152 98.4901 57.196C98.59 57.284 98.7781 57.406 98.9871 57.519L99.1261 57.591L99.2851 57.67L99.4301 57.733C99.7781 57.877 100.413 57.995 100.839 57.995C100.949 57.995 101.072 57.988 101.205 57.973L101.366 57.953L101.541 57.925C101.817 57.881 102.088 57.812 102.351 57.719C102.756 57.567 103.267 57.248 103.488 57.01C103.594 56.896 103.671 56.8 103.724 56.704C103.754 56.65 103.777 56.592 103.793 56.531C103.831 56.38 103.821 56.209 103.775 55.965C103.689 55.558 103.56 55.161 103.39 54.782C103.368 54.737 103.344 54.693 103.318 54.651L103.243 54.538C103.213 54.496 103.181 54.455 103.149 54.416L103.101 54.359L103.028 54.274ZM66.3821 50.287C66.1931 50.055 65.6851 49.822 65.0491 49.674C64.7721 49.609 64.494 49.552 64.2141 49.502L64.0591 49.476C64.0011 49.467 63.9421 49.459 63.8831 49.453L63.8241 49.448L63.7611 49.445C63.6061 49.462 63.4511 49.485 63.2981 49.514C62.9681 49.571 62.5091 49.657 62.0411 49.751C61.2371 49.911 59.8621 50.262 58.9891 50.53C57.8741 50.871 57.3711 51.11 57.3001 51.33C57.2451 51.503 57.2431 51.712 57.2941 51.796C57.3471 51.879 57.7201 52.099 58.1241 52.284C58.3371 52.382 58.7351 52.521 59.1941 52.662C59.6071 52.788 60.0671 52.918 60.4921 53.022C61.5051 53.271 62.6181 53.421 63.4171 53.417C64.2641 53.413 64.8931 53.314 65.2461 53.132C65.5431 52.978 65.9881 52.615 66.2371 52.322C66.299 52.249 66.357 52.172 66.409 52.091L66.4601 52.008L66.5121 51.911C66.5551 51.825 66.59 51.736 66.618 51.65C66.663 51.506 66.687 51.364 66.687 51.226C66.687 50.915 66.5501 50.493 66.3821 50.287ZM52.4861 49.598C52.7171 49.677 52.9741 49.778 53.2111 49.881C53.4941 50.002 53.7461 50.125 53.8911 50.217C54.1611 50.385 54.5611 50.657 54.7821 50.821L55.1831 51.118L53.9211 51.756C52.7951 52.328 52.5201 52.395 51.3351 52.403C50.4901 52.407 49.9281 52.332 49.7901 52.196C49.6721 52.078 49.5431 51.447 49.5071 50.793C49.4691 50.139 49.4871 49.478 49.5471 49.326C49.6371 49.095 49.8131 49.069 50.6121 49.168C51.1401 49.233 51.9831 49.427 52.4861 49.598ZM30.0291 54.684C29.2071 54.417 28.3761 54.179 27.5371 53.972C27.3461 53.929 27.1541 53.891 26.9621 53.857C26.7601 53.821 26.5491 53.786 26.3431 53.756L26.1761 53.734L25.9701 53.707L25.6751 53.674L25.4761 53.657C24.9351 53.621 24.2451 53.649 23.9451 53.719C23.8421 53.745 23.7401 53.779 23.6411 53.82C23.5521 53.857 23.4641 53.898 23.3791 53.944C23.2631 54.005 23.1561 54.078 23.0571 54.163C23.0121 54.204 22.9681 54.252 22.9281 54.302L22.8811 54.364L22.8361 54.436C22.8011 54.493 22.7721 54.552 22.7481 54.614C22.7271 54.666 22.7161 54.72 22.7141 54.776C22.7141 54.865 22.7681 55.025 22.8511 55.204C22.9201 55.353 23.0111 55.513 23.1091 55.659C23.2941 55.935 23.399 56.141 23.4531 56.377C23.4901 56.535 23.5021 56.706 23.5021 56.922C23.5031 57.292 23.5671 57.736 23.6451 57.904C23.7231 58.073 24.034 58.336 24.3351 58.491C24.6851 58.668 25.246 58.795 25.8731 58.84L28.0461 58.997C28.7381 59.045 29.3561 59.159 29.5321 59.272C29.6551 59.353 29.7961 59.397 30.0001 59.41C30.1681 59.421 30.3811 59.41 30.6651 59.381L30.8541 59.36L31.0121 59.337L31.2121 59.306C31.4261 59.27 31.6381 59.229 31.8491 59.181C31.9831 59.15 32.1071 59.119 32.2091 59.089C32.6911 58.95 33.1271 58.688 33.4761 58.328C33.9271 57.884 34.0371 57.683 34.0371 57.312C34.0371 56.976 33.9341 56.747 33.6561 56.473C33.5441 56.37 33.4261 56.276 33.3001 56.191C32.9991 55.982 32.6851 55.791 32.3591 55.621C32.2281 55.554 32.0951 55.49 31.9601 55.431C31.3281 55.152 30.6841 54.903 30.0291 54.684ZM143.536 50.86C143.913 51.105 143.923 51.151 143.835 52.268C143.781 52.843 143.686 53.413 143.552 53.975C143.511 54.148 143.469 54.309 143.426 54.443C143.22 55.103 142.985 55.544 142.762 55.69C142.625 55.778 142.318 55.892 141.992 55.978L141.856 56.013C141.773 56.033 141.691 56.05 141.612 56.065C141.362 56.112 140.801 56.176 140.124 56.239C139.555 56.291 138.985 56.336 138.415 56.373C137.035 56.463 135.653 56.523 134.271 56.555C133.204 56.569 132.293 56.504 131.949 56.389C131.588 56.253 131.263 56.034 131.001 55.752C130.77 55.461 130.605 55.124 130.517 54.764C130.493 54.615 130.485 54.463 130.493 54.312C130.502 54.068 130.54 53.805 130.602 53.597C130.637 53.479 130.691 53.346 130.754 53.214C130.819 53.08 130.895 52.947 130.972 52.827C131.033 52.731 131.103 52.641 131.18 52.557C131.395 52.331 132.082 51.935 132.704 51.677C133.596 51.31 134.342 51.151 136.227 50.925C137.253 50.8 138.279 50.683 139.305 50.573C139.683 50.537 140.702 50.529 141.569 50.556C142.108 50.573 142.512 50.601 142.817 50.643C143.164 50.692 143.384 50.762 143.536 50.86Z" fill="white"/>
<path id="Vector_2" d="M74.518 41.75C74.46 41.843 74.494 41.92 74.593 41.92C74.633 41.92 74.672 41.908 74.704 41.885L74.72 41.871L74.74 41.848C74.763 41.82 74.775 41.786 74.775 41.75C74.775 41.656 74.741 41.579 74.7 41.579C74.68 41.579 74.655 41.594 74.627 41.62C74.584 41.658 74.548 41.701 74.518 41.75Z" fill="white"/>
</g>
<defs>
<clipPath id="clip0_11_228">
<rect width="169" height="108" fill="white"/>
</clipPath>
</defs>
</svg>
