<svg width="32" height="32" viewBox="0 0 32 32" fill="none" xmlns="http://www.w3.org/2000/svg">
<mask id="mask0_168_507" style="mask-type:alpha" maskUnits="userSpaceOnUse" x="0" y="0" width="32" height="32">
<rect width="32" height="32" fill="#D9D9D9"/>
</mask>
<g mask="url(#mask0_168_507)">
<path d="M14.6666 26.0668L7.99992 22.2335C7.5777 21.9891 7.25014 21.6615 7.01725 21.2508C6.78347 20.8393 6.66659 20.3891 6.66659 19.9002V12.2668C6.66659 11.7779 6.78347 11.3277 7.01725 10.9162C7.25014 10.5055 7.5777 10.1779 7.99992 9.9335L14.6666 6.10016C15.0888 5.85572 15.5333 5.7335 15.9999 5.7335C16.4666 5.7335 16.911 5.85572 17.3333 6.10016L23.9999 9.9335C24.4221 10.1779 24.7501 10.5055 24.9839 10.9162C25.2168 11.3277 25.3333 11.7779 25.3333 12.2668V19.9002C25.3333 20.3891 25.2168 20.8393 24.9839 21.2508C24.7501 21.6615 24.4221 21.9891 23.9999 22.2335L17.3333 26.0668C16.911 26.3113 16.4666 26.4335 15.9999 26.4335C15.5333 26.4335 15.0888 26.3113 14.6666 26.0668ZM14.6666 23.0002V16.8668L9.33325 13.8002V19.9335L14.6666 23.0002ZM17.3333 23.0002L22.6666 19.9335V13.8002L17.3333 16.8668V23.0002ZM1.33325 8.00016V5.3335C1.33325 4.22239 1.72214 3.27794 2.49992 2.50016C3.2777 1.72239 4.22214 1.3335 5.33325 1.3335H7.99992V4.00016H5.33325C4.95547 4.00016 4.63903 4.12772 4.38392 4.38283C4.12792 4.63883 3.99992 4.95572 3.99992 5.3335V8.00016H1.33325ZM5.33325 30.6668C4.22214 30.6668 3.2777 30.2779 2.49992 29.5002C1.72214 28.7224 1.33325 27.7779 1.33325 26.6668V24.0002H3.99992V26.6668C3.99992 27.0446 4.12792 27.3611 4.38392 27.6162C4.63903 27.8722 4.95547 28.0002 5.33325 28.0002H7.99992V30.6668H5.33325ZM23.9999 30.6668V28.0002H26.6666C27.0444 28.0002 27.3608 27.8722 27.6159 27.6162C27.8719 27.3611 27.9999 27.0446 27.9999 26.6668V24.0002H30.6666V26.6668C30.6666 27.7779 30.2777 28.7224 29.4999 29.5002C28.7221 30.2779 27.7777 30.6668 26.6666 30.6668H23.9999ZM27.9999 8.00016V5.3335C27.9999 4.95572 27.8719 4.63883 27.6159 4.38283C27.3608 4.12772 27.0444 4.00016 26.6666 4.00016H23.9999V1.3335H26.6666C27.7777 1.3335 28.7221 1.72239 29.4999 2.50016C30.2777 3.27794 30.6666 4.22239 30.6666 5.3335V8.00016H27.9999ZM15.9999 14.5335L21.3333 11.4668L15.9999 8.40016L10.6666 11.4668L15.9999 14.5335Z" fill="#8F5018"/>
</g>
</svg>
