<svg width="32" height="32" viewBox="0 0 32 32" fill="none" xmlns="http://www.w3.org/2000/svg">
<mask id="mask0_168_519" style="mask-type:alpha" maskUnits="userSpaceOnUse" x="0" y="0" width="32" height="32">
<rect width="32" height="32" fill="#D9D9D9"/>
</mask>
<g mask="url(#mask0_168_519)">
<path d="M8 29.3332C6.88889 29.3332 5.94444 28.9443 5.16667 28.1665C4.38889 27.3887 4 26.4443 4 25.3332V21.3332H8V2.6665L10 4.6665L12 2.6665L14 4.6665L16 2.6665L18 4.6665L20 2.6665L22 4.6665L24 2.6665L26 4.6665L28 2.6665V25.3332C28 26.4443 27.6111 27.3887 26.8333 28.1665C26.0556 28.9443 25.1111 29.3332 24 29.3332H8ZM24 26.6665C24.3778 26.6665 24.6942 26.5385 24.9493 26.2825C25.2053 26.0274 25.3333 25.7109 25.3333 25.3332V6.6665H10.6667V21.3332H22.6667V25.3332C22.6667 25.7109 22.7947 26.0274 23.0507 26.2825C23.3058 26.5385 23.6222 26.6665 24 26.6665ZM12 11.9998V9.33317H20V11.9998H12ZM12 15.9998V13.3332H20V15.9998H12ZM22.6667 11.9998C22.2889 11.9998 21.9724 11.8718 21.7173 11.6158C21.4613 11.3607 21.3333 11.0443 21.3333 10.6665C21.3333 10.2887 21.4613 9.97184 21.7173 9.71584C21.9724 9.46073 22.2889 9.33317 22.6667 9.33317C23.0444 9.33317 23.3609 9.46073 23.616 9.71584C23.872 9.97184 24 10.2887 24 10.6665C24 11.0443 23.872 11.3607 23.616 11.6158C23.3609 11.8718 23.0444 11.9998 22.6667 11.9998ZM22.6667 15.9998C22.2889 15.9998 21.9724 15.8718 21.7173 15.6158C21.4613 15.3607 21.3333 15.0443 21.3333 14.6665C21.3333 14.2887 21.4613 13.9718 21.7173 13.7158C21.9724 13.4607 22.2889 13.3332 22.6667 13.3332C23.0444 13.3332 23.3609 13.4607 23.616 13.7158C23.872 13.9718 24 14.2887 24 14.6665C24 15.0443 23.872 15.3607 23.616 15.6158C23.3609 15.8718 23.0444 15.9998 22.6667 15.9998ZM8 26.6665H20V23.9998H6.66667V25.3332C6.66667 25.7109 6.79422 26.0274 7.04933 26.2825C7.30533 26.5385 7.62222 26.6665 8 26.6665Z" fill="#8F5018"/>
</g>
</svg>
