<?xml version="1.0" encoding="utf-8"?>
<!-- Generator: Adobe Illustrator 26.3.1, SVG Export Plug-In . SVG Version: 6.00 Build 0)  -->
<svg version="1.1" id="Layer_1" xmlns="http://www.w3.org/2000/svg" xmlns:xlink="http://www.w3.org/1999/xlink" x="0px" y="0px"
	 viewBox="0 0 504 504" style="enable-background:new 0 0 504 504;" xml:space="preserve">
<style type="text/css">
	.st0{fill:#231F20;}
</style>
<g>
	<g>
		<path class="st0" d="M36.03,270.49v17.72H17.49V222.7h31.8c4.42,0,8.28,0.65,11.59,1.95c3.3,1.3,6.04,3.04,8.22,5.22
			c2.18,2.18,3.82,4.71,4.91,7.59c1.09,2.88,1.64,5.92,1.64,9.13c0,3.33-0.55,6.44-1.64,9.31c-1.09,2.88-2.74,5.39-4.95,7.54
			c-2.21,2.15-4.97,3.85-8.27,5.09c-3.3,1.24-7.13,1.9-11.49,1.95H36.03z M36.03,254.86h13.27c2.67,0,4.63-0.79,5.91-2.36
			c1.27-1.58,1.91-3.45,1.91-5.63c0-2.24-0.65-4.18-1.95-5.82c-1.3-1.64-3.26-2.45-5.86-2.45H36.03V254.86z"/>
		<path class="st0" d="M210.57,223.79l-26.62,30.99c4.66,5.15,9.49,10.49,14.49,16.04c5,5.54,9.77,10.98,14.31,16.31v1.09h-22.9
			l-18.72-21.81v21.81H152.6V222.7h18.54v21.54l17.26-21.54h22.17V223.79z"/>
		<path class="st0" d="M227.29,237.96h-19.17V222.7h56.79v15.27h-19.26v50.25h-18.35V237.96z"/>
	</g>
	<g>
		<path class="st0" d="M284.7,243.85v8.29c2.59-5.52,6.82-8.72,12.43-8.72c1.73,0,3.37,0.26,4.14,0.43l-1.04,10.88
			c-0.78-0.17-1.9-0.34-3.28-0.34c-6.82,0-11.57,4.49-11.57,15.11v18.21h-12.43v-43.85H284.7z"/>
		<path class="st0" d="M318.88,288.73c-9.41,0-14.24-5.96-14.24-12.69c0-8.2,6.56-12.08,13.98-13.81l13.55-3.19
			c-0.43-3.71-2.76-6.04-7.77-6.04c-5.35,0-10.19,3.71-13.21,6.47l-6.56-7.08c3.8-4.06,11.14-9.58,20.98-9.58
			c13.81,0,18.73,8.37,18.73,17.26v27.62h-11.39v-6.04C329.93,286.15,325.27,288.73,318.88,288.73z M322.25,279.15
			c5.09,0,10.01-4.06,10.01-10.7v-0.95l-9.67,2.24c-3.71,0.86-5.52,2.5-5.52,5.01C317.07,277.6,318.71,279.15,322.25,279.15z"/>
		<path class="st0" d="M352.81,266.03c0-13.38,8.29-23.22,20.2-23.22c5.7,0,10.1,2.07,13.21,5.7v-23.82h12.43v63.01h-11.74v-5.52
			c-3.02,4.06-7.68,6.56-13.9,6.56C361.18,288.73,352.81,279.41,352.81,266.03z M386.39,265.77c0-7.68-4.4-12.86-10.7-12.86
			c-6.3,0-10.27,5.27-10.27,12.86c0,7.51,4.06,12.78,10.27,12.78C382.16,278.55,386.39,273.46,386.39,265.77z"/>
		<path class="st0" d="M422.12,288.73c-9.41,0-14.24-5.96-14.24-12.69c0-8.2,6.56-12.08,13.98-13.81l13.55-3.19
			c-0.43-3.71-2.76-6.04-7.77-6.04c-5.35,0-10.19,3.71-13.21,6.47l-6.56-7.08c3.8-4.06,11.13-9.58,20.98-9.58
			c13.81,0,18.73,8.37,18.73,17.26v27.62h-11.39v-6.04C433.17,286.15,428.51,288.73,422.12,288.73z M425.49,279.15
			c5.09,0,10.01-4.06,10.01-10.7v-0.95l-9.67,2.24c-3.71,0.86-5.52,2.5-5.52,5.01C420.31,277.6,421.95,279.15,425.49,279.15z"/>
		<path class="st0" d="M470.29,243.85v8.29c2.59-5.52,6.82-8.72,12.43-8.72c1.73,0,3.37,0.26,4.14,0.43l-1.04,10.88
			c-0.78-0.17-1.9-0.34-3.28-0.34c-6.82,0-11.57,4.49-11.57,15.11v18.21h-12.43v-43.85H470.29z"/>
	</g>
	<g id="s0YpLN_00000133512491824742986500000004632135977799454611_">
		<g>
			<path class="st0" d="M76.66,250.26c0.39-2.27,0.6-4.59,1.21-6.8c2.93-10.61,9.45-18.25,19.39-22.94
				c4.52-2.13,9.32-3.09,14.42-3.13c0-0.9,0-1.79,0-2.69c5.69,2.51,11.37,5.02,17.06,7.54c-5.67,2.95-11.34,5.9-17.01,8.85
				c0-1.17,0-2.35,0-3.52c-5.47-0.59-15.05,2.44-20.75,10.8c-5.91,8.65-6.34,22.17,2.92,31.65c-2.32,2.32-4.63,4.64-7,7.01
				c-2.07-2-3.87-4.32-5.36-6.87c-2.67-4.54-4.27-9.43-4.69-14.69c-0.03-0.33-0.12-0.65-0.18-0.98
				C76.66,253.08,76.66,251.67,76.66,250.26z"/>
			<path class="st0" d="M111.6,289.88c-4.39-3.02-8.79-6.03-13.18-9.05c4.32-2.1,8.65-4.21,12.97-6.31
				c0.08,0.89,0.16,1.78,0.24,2.66c6,0.57,15.58-2.8,21.08-11.24c4.96-7.61,4.69-16.42,2.31-22.68c-1.09-2.87-2.55-5.02-3.69-6.45
				c2.69-1.72,5.39-3.44,8.08-5.16c0.66,0.66,1.58,1.68,2.51,3.03c0.56,0.81,2.67,4.74,3.76,9.17c0.44,1.76,0.73,3.58,0.88,5.43
				c0.02,0.26,0.11,0.51,0.17,0.77c0,1.54,0,3.09,0,4.63c-0.06,0.26-0.15,0.51-0.17,0.77c-0.61,7.16-3.22,13.51-7.78,19.03
				c-5.42,6.56-12.32,10.73-20.73,12.24c-2.06,0.37-4.16,0.52-6.35,0.79C111.67,288.31,111.64,289.1,111.6,289.88z"/>
		</g>
	</g>
	<path class="st0" d="M107,233.08c-6.62,1.31-11.48,5.05-14.54,11.02c-1.95,3.81-2.55,7.94-1.81,12.16
		c1.17,6.76,4.88,11.78,10.96,14.94c3.6,1.87,7.48,2.52,11.54,2.05c4.57-0.53,8.51-2.37,11.81-5.53c3.5-3.35,5.57-7.45,6.14-12.3
		c0.42-3.59-0.09-7.01-1.45-10.31h-11.61c-0.05,0.06-0.1,0.12-0.14,0.18c0.22,0.16,0.47,0.28,0.65,0.47c1.58,1.7,2.6,3.7,2.85,6.01
		c0.71,6.78-4.63,12-10.81,11.85c-5.18-0.12-9.77-4.09-10.34-9.24c-0.73-6.63,4.21-11.9,10.63-11.97c6-0.06,12-0.02,18-0.03v-9.66
		c-6.04,0-12.08,0-18.12,0.02C109.52,232.75,108.24,232.83,107,233.08z"/>
</g>
</svg>
