<?xml version="1.0" encoding="utf-8"?>
<!-- Generator: Adobe Illustrator 26.3.1, SVG Export Plug-In . SVG Version: 6.00 Build 0)  -->
<svg version="1.1" id="Layer_1" xmlns="http://www.w3.org/2000/svg" xmlns:xlink="http://www.w3.org/1999/xlink" x="0px" y="0px"
	 viewBox="0 0 504 504" style="enable-background:new 0 0 504 504;" xml:space="preserve">
<style type="text/css">
	.st0{fill:#231F20;}
	.st1{fill:#FFFFFF;}
</style>
<rect class="st0" width="504" height="504"/>
<g>
	<g>
		<g>
			<path class="st1" d="M146.83,232.29v17.72h-18.54V184.5h31.8c4.42,0,8.28,0.65,11.59,1.95c3.3,1.3,6.04,3.04,8.22,5.22
				c2.18,2.18,3.82,4.71,4.91,7.59s1.64,5.92,1.64,9.13c0,3.33-0.55,6.44-1.64,9.31c-1.09,2.88-2.74,5.39-4.95,7.54
				c-2.21,2.15-4.97,3.85-8.27,5.09c-3.3,1.24-7.13,1.9-11.49,1.95H146.83z M146.83,216.66h13.27c2.67,0,4.63-0.79,5.91-2.36
				c1.27-1.58,1.91-3.45,1.91-5.63c0-2.24-0.65-4.18-1.95-5.82c-1.3-1.64-3.26-2.45-5.86-2.45h-13.27V216.66z"/>
			<path class="st1" d="M321.37,185.59l-26.62,30.99c4.66,5.15,9.49,10.49,14.49,16.04c5,5.54,9.77,10.98,14.31,16.31v1.09h-22.9
				l-18.72-21.81v21.81H263.4V184.5h18.54v21.54l17.26-21.54h22.17V185.59z"/>
			<path class="st1" d="M338.09,199.76h-19.17V184.5h56.79v15.27h-19.26v50.25h-18.35V199.76z"/>
		</g>
		<g id="s0YpLN_00000119092533576220090020000004664903734465913010_">
			<g>
				<path class="st1" d="M187.47,212.06c0.39-2.27,0.6-4.59,1.21-6.8c2.93-10.61,9.45-18.25,19.39-22.94
					c4.52-2.13,9.32-3.09,14.42-3.13c0-0.9,0-1.79,0-2.69c5.69,2.51,11.37,5.02,17.06,7.54c-5.67,2.95-11.34,5.9-17.01,8.85
					c0-1.17,0-2.35,0-3.52c-5.46-0.59-15.05,2.44-20.75,10.8c-5.91,8.65-6.34,22.17,2.92,31.65c-2.32,2.32-4.63,4.64-7,7.01
					c-2.07-2-3.87-4.32-5.36-6.87c-2.67-4.54-4.27-9.43-4.69-14.69c-0.03-0.33-0.12-0.65-0.18-0.98
					C187.47,214.88,187.47,213.47,187.47,212.06z"/>
				<path class="st1" d="M222.4,251.68c-4.39-3.02-8.79-6.03-13.18-9.05c4.32-2.1,8.65-4.21,12.97-6.31
					c0.08,0.89,0.16,1.78,0.24,2.66c6,0.57,15.58-2.8,21.08-11.24c4.96-7.61,4.69-16.42,2.31-22.68c-1.09-2.87-2.55-5.02-3.69-6.45
					c2.69-1.72,5.39-3.44,8.08-5.16c0.66,0.66,1.58,1.68,2.51,3.03c0.56,0.81,2.67,4.74,3.76,9.17c0.44,1.76,0.73,3.58,0.88,5.43
					c0.02,0.26,0.11,0.51,0.17,0.77c0,1.54,0,3.09,0,4.63c-0.06,0.26-0.15,0.51-0.17,0.77c-0.61,7.16-3.22,13.51-7.78,19.03
					c-5.42,6.56-12.32,10.73-20.73,12.24c-2.06,0.37-4.16,0.52-6.35,0.79C222.47,250.11,222.44,250.9,222.4,251.68z"/>
			</g>
		</g>
		<path class="st1" d="M217.8,194.88c-6.62,1.31-11.48,5.05-14.54,11.02c-1.95,3.81-2.55,7.94-1.81,12.16
			c1.17,6.76,4.88,11.78,10.96,14.94c3.6,1.87,7.48,2.52,11.54,2.05c4.57-0.53,8.51-2.37,11.81-5.53c3.5-3.35,5.57-7.45,6.14-12.3
			c0.42-3.59-0.09-7.01-1.45-10.31h-11.61c-0.05,0.06-0.1,0.12-0.14,0.18c0.22,0.16,0.47,0.28,0.65,0.47c1.58,1.7,2.6,3.7,2.85,6.01
			c0.71,6.78-4.63,12-10.81,11.85c-5.18-0.12-9.77-4.09-10.34-9.24c-0.73-6.63,4.21-11.9,10.63-11.97c6-0.06,12-0.02,18-0.03v-9.66
			c-6.04,0-12.08,0-18.12,0.02C220.32,194.55,219.04,194.63,217.8,194.88z"/>
	</g>
	<g>
		<path class="st1" d="M141.2,279.41v8.88c2.77-5.92,7.3-9.34,13.32-9.34c1.85,0,3.61,0.28,4.44,0.46l-1.11,11.65
			c-0.83-0.19-2.04-0.37-3.51-0.37c-7.3,0-12.39,4.81-12.39,16.18v19.51h-13.32v-46.97H141.2z"/>
		<path class="st1" d="M177.81,327.49c-10.08,0-15.26-6.38-15.26-13.59c0-8.79,7.03-12.95,14.98-14.79l14.52-3.42
			c-0.46-3.98-2.96-6.47-8.32-6.47c-5.73,0-10.91,3.98-14.15,6.94l-7.03-7.58c4.07-4.35,11.93-10.27,22.47-10.27
			c14.79,0,20.06,8.97,20.06,18.49v29.59h-12.21v-6.47C189.65,324.72,184.66,327.49,177.81,327.49z M181.42,317.23
			c5.46,0,10.73-4.35,10.73-11.47v-1.02l-10.36,2.4c-3.98,0.92-5.92,2.68-5.92,5.36C175.87,315.56,177.63,317.23,181.42,317.23z"/>
		<path class="st1" d="M214.15,303.17c0-14.33,8.88-24.87,21.64-24.87c6.1,0,10.82,2.22,14.15,6.1v-25.52h13.31v67.5h-12.57v-5.92
			c-3.24,4.35-8.23,7.03-14.89,7.03C223.12,327.49,214.15,317.51,214.15,303.17z M250.12,302.9c0-8.23-4.72-13.78-11.47-13.78
			s-11,5.64-11,13.78c0,8.04,4.35,13.69,11,13.69C245.59,316.58,250.12,311.13,250.12,302.9z"/>
		<path class="st1" d="M288.41,327.49c-10.08,0-15.26-6.38-15.26-13.59c0-8.79,7.03-12.95,14.98-14.79l14.52-3.42
			c-0.46-3.98-2.96-6.47-8.32-6.47c-5.73,0-10.91,3.98-14.15,6.94l-7.03-7.58c4.07-4.35,11.93-10.27,22.47-10.27
			c14.79,0,20.07,8.97,20.07,18.49v29.59h-12.21v-6.47C300.24,324.72,295.25,327.49,288.41,327.49z M292.01,317.23
			c5.46,0,10.73-4.35,10.73-11.47v-1.02l-10.36,2.4c-3.97,0.92-5.92,2.68-5.92,5.36C286.46,315.56,288.22,317.23,292.01,317.23z"/>
		<path class="st1" d="M340,279.41v8.88c2.77-5.92,7.3-9.34,13.32-9.34c1.85,0,3.61,0.28,4.44,0.46l-1.11,11.65
			c-0.83-0.19-2.04-0.37-3.51-0.37c-7.3,0-12.39,4.81-12.39,16.18v19.51h-13.32v-46.97H340z"/>
	</g>
</g>
</svg>
